<svg width="22" height="22" viewBox="0 0 22 22" fill="none" xmlns="http://www.w3.org/2000/svg">
<path d="M21.3125 10.75C21.3125 4.86328 16.543 0.09375 10.6562 0.09375C4.76953 0.09375 0 4.86328 0 10.75C0 15.3047 2.79297 19.1289 6.74609 20.6758C6.66016 19.8594 6.57422 18.5703 6.78906 17.625C7.00391 16.8086 8.03516 12.3398 8.03516 12.3398C8.03516 12.3398 7.73438 11.6953 7.73438 10.75C7.73438 9.28906 8.59375 8.17188 9.66797 8.17188C10.5703 8.17188 11 8.85938 11 9.67578C11 10.5781 10.3984 11.9531 10.0977 13.2422C9.88281 14.2734 10.6562 15.1328 11.6875 15.1328C13.5781 15.1328 15.0391 13.1562 15.0391 10.2773C15.0391 7.69922 13.1914 5.9375 10.6133 5.9375C7.5625 5.9375 5.80078 8.21484 5.80078 10.5352C5.80078 11.4805 6.14453 12.4688 6.57422 12.9844C6.66016 13.0703 6.66016 13.1992 6.66016 13.2852C6.57422 13.6289 6.35938 14.3594 6.35938 14.4883C6.31641 14.7031 6.1875 14.7461 5.97266 14.6602C4.64062 14.0156 3.82422 12.082 3.82422 10.4922C3.82422 7.14062 6.27344 4.04688 10.8711 4.04688C14.5664 4.04688 17.4453 6.71094 17.4453 10.2344C17.4453 13.8867 15.125 16.8516 11.9023 16.8516C10.8281 16.8516 9.79688 16.293 9.45312 15.6055C9.45312 15.6055 8.9375 17.668 8.80859 18.1406C8.55078 19.0859 7.90625 20.2461 7.47656 20.9336C8.46484 21.2773 9.53906 21.4062 10.6562 21.4062C16.543 21.4062 21.3125 16.6367 21.3125 10.75Z" fill="#101010"/>
</svg>
