<svg width="23" height="20" viewBox="0 0 23 20" fill="none" xmlns="http://www.w3.org/2000/svg">
<path d="M20.6797 1.54297C18.1875 -0.5625 14.3633 -0.261719 12 2.1875C9.59375 -0.261719 5.76953 -0.5625 3.27734 1.54297C0.0546875 4.25 0.527344 8.67578 2.84766 11.0391L10.3672 18.7305C10.7969 19.1602 11.3555 19.418 12 19.418C12.6016 19.418 13.1602 19.1602 13.5898 18.7305L21.1523 11.0391C23.4297 8.67578 23.9023 4.25 20.6797 1.54297ZM19.6484 9.57812L12.1289 17.2695C12.043 17.3555 11.957 17.3555 11.8281 17.2695L4.30859 9.57812C2.71875 7.98828 2.41797 4.98047 4.60938 3.13281C6.28516 1.71484 8.86328 1.92969 10.4961 3.5625L12 5.10938L13.5039 3.5625C15.0938 1.92969 17.6719 1.71484 19.3477 3.08984C21.5391 4.98047 21.2383 7.98828 19.6484 9.57812Z" fill="#101010"/>
</svg>
