<svg width="109" height="45" viewBox="0 0 109 45" fill="none" xmlns="http://www.w3.org/2000/svg">
<g clip-path="url(#clip0)">
<path d="M25.1918 29.3134C22.5359 27.5114 19.2161 26.6103 15.2323 26.6103C10.643 26.6103 6.9131 27.6974 4.0424 29.8717C1.56228 31.7521 0.322221 33.8773 0.322221 36.2474C0.322221 37.599 0.790905 38.6958 1.72827 39.5382C2.76328 40.4392 4.19863 40.8897 6.03431 40.8897C9.29557 40.8897 12.6252 39.7829 16.0232 37.5696C18.8548 35.7088 21.911 32.9567 25.1918 29.3134ZM29.7322 34.7196C26.5686 38.1278 24.0298 40.5959 22.1161 42.1237C22.0575 42.1825 21.9793 42.2119 21.8817 42.2119C21.745 42.2119 21.6767 42.1531 21.6767 42.0356C21.6767 41.9377 21.745 41.8495 21.8817 41.7711C23.8932 39.8907 26.0217 36.7078 28.2675 32.2222C27.7013 31.4779 27.0372 30.7825 26.2756 30.1361C23.3854 33.799 20.5635 36.5412 17.81 38.3629C14.373 40.6155 10.6528 41.7418 6.64946 41.7418C4.52085 41.7418 2.85116 41.2129 1.6404 40.1552C0.546799 39.1953 0 37.9418 0 36.3943C0 33.8872 1.26935 31.6639 3.80806 29.7247C6.69829 27.4918 10.5064 26.3753 15.2323 26.3753C19.2356 26.3753 22.614 27.2958 25.3676 29.1371C27.0275 27.2763 29.3318 24.4851 32.2807 20.7634C35.4639 16.7872 37.7388 14.0057 39.1059 12.4191C39.2035 12.3603 39.2816 12.3309 39.3402 12.3309C39.477 12.3309 39.5453 12.3897 39.5453 12.5072C39.5453 12.6052 39.4867 12.7031 39.3695 12.801C37.2604 15.4062 34.917 19.3434 32.3392 24.6124C31.5972 26.2381 30.3863 28.8042 28.7069 32.3103C29.156 32.9567 29.5075 33.5541 29.7615 34.1026C31.6948 31.9675 33.6281 29.8226 35.5614 27.668C37.8659 25.1804 40.2386 22.8104 42.6796 20.5577C44.1052 19.2453 45.2671 18.315 46.1654 17.7665C47.1418 17.1789 48.0695 16.8851 48.9482 16.8851C49.2608 16.8851 49.4169 16.9829 49.4169 17.1789C49.4169 17.3943 49.2216 17.5021 48.8311 17.5021C46.722 17.5021 44.4762 19.1768 42.0937 22.5263C39.8871 25.6407 37.7388 29.1274 35.6493 32.9861C33.5598 36.8253 32.515 39.1856 32.515 40.067C32.515 40.3217 32.6322 40.449 32.8665 40.449C33.3938 40.449 34.214 39.9886 35.3271 39.068C35.9911 38.5195 37.1043 37.4815 38.6665 35.9536L38.8715 36.1593C37.2701 37.7262 36.1277 38.7939 35.4443 39.3619C34.3116 40.2824 33.4427 40.7428 32.8372 40.7428C32.1928 40.7428 31.8706 40.4099 31.8706 39.7438C31.8706 37.4717 33.218 34.2592 35.913 30.1067C37.7487 27.2861 40.0042 24.3088 42.6796 21.1747C42.7186 21.1356 42.7382 21.0963 42.7382 21.0572C42.7382 21.0181 42.6796 20.9985 42.5624 20.9985C41.1564 22.2716 39.184 24.2989 36.6453 27.0804C34.419 29.5485 32.1831 32.0165 29.9372 34.4845C30.4449 35.5814 30.7574 36.7763 30.8746 38.0691C30.8746 38.1866 30.8356 38.2454 30.7574 38.2454C30.6598 38.2454 30.611 38.1963 30.611 38.0985C30.4938 36.9428 30.2009 35.8165 29.7322 34.7196ZM29.5564 34.3083C29.3417 33.8382 29.0096 33.2702 28.5605 32.6041C26.8811 36.0515 25.4066 38.4217 24.1373 39.7144C24.1373 39.8123 24.1568 39.8613 24.1958 39.8613C24.2154 39.8613 24.2641 39.8417 24.3423 39.8026C26.2756 37.8831 28.0136 36.0515 29.5564 34.3083ZM28.414 31.9284C29.2146 30.283 30.3962 27.8247 31.9584 24.5536C34.2237 19.8917 36.3133 16.3758 38.2271 14.0057C38.2271 13.8686 38.1881 13.8392 38.1099 13.9175C36.6843 15.6413 34.751 18.2562 32.3099 21.7624C29.615 25.6604 27.6621 28.3829 26.4514 29.9304C27.1154 30.4396 27.7696 31.1057 28.414 31.9284ZM46.0503 34.5433C42.418 38.6763 40.1137 40.7428 39.1372 40.7428C38.6881 40.7428 38.4634 40.4293 38.4634 39.8026C38.4634 37.8046 39.44 35.8165 41.3927 33.8382C41.3927 33.799 41.3733 33.7794 41.3341 33.7794C40.4749 34.4454 39.645 35.2485 38.8442 36.1887L38.6392 35.983C40.4163 33.9067 42.6523 32.33 45.3472 31.2526C46.6753 30.7237 47.9642 30.4593 49.2139 30.4593C49.4678 30.4593 49.8486 30.4789 50.3563 30.518C48.8722 32.3788 47.388 34.2397 45.9038 36.1005C44.2048 38.3139 43.3553 39.6166 43.3553 40.0083C43.3553 40.2433 43.4628 40.3608 43.6776 40.3608C44.1072 40.3608 44.9763 39.7732 46.2846 38.5979C47.3587 37.6186 48.2179 36.7372 48.8624 35.9536L49.0674 36.1593C48.3644 36.9623 47.5149 37.8243 46.519 38.7449C45.0543 40.0768 44.0291 40.7428 43.4432 40.7428C43.0527 40.7428 42.8574 40.5274 42.8574 40.0964C42.8574 39.2346 43.9412 37.403 46.1089 34.6021L46.0503 34.5433ZM48.9503 30.7237C46.5288 30.7237 44.1268 32.1731 41.7442 35.0722C39.8695 37.3443 38.9321 38.9896 38.9321 40.0083C38.9321 40.2433 39.0299 40.3608 39.225 40.3608C39.8891 40.3608 41.5392 38.9603 44.1755 36.1593C45.9527 34.2592 47.5442 32.4475 48.9503 30.7237ZM48.8231 35.983C49.3893 35.415 50.5318 34.2495 52.2503 32.4866C53.1487 31.566 53.9982 30.665 54.7988 29.7835C54.7792 29.6856 54.7695 29.5387 54.7695 29.3428C54.7695 28.9118 54.877 28.5592 55.0917 28.2851C55.3065 27.9912 55.5604 27.8443 55.8533 27.8443C56.0877 27.8443 56.2048 27.9716 56.2048 28.2263C56.2048 28.5005 55.8338 29.0293 55.0917 29.8129C55.1893 30.518 55.6386 31.1644 56.4392 31.7521C55.7557 32.4376 54.6035 33.8479 52.9826 35.983C51.2446 38.2944 50.3756 39.6459 50.3756 40.0376C50.3756 40.253 50.483 40.3608 50.6978 40.3608C51.1665 40.3608 51.9477 39.9299 53.0412 39.068C54.0176 38.3041 54.8964 37.5011 55.6776 36.6588C55.8143 36.5216 56.0194 36.2866 56.2927 35.9536L56.4978 36.1593C55.7362 37.0407 54.8085 37.9418 53.715 38.8624C52.3285 40.0573 51.3227 40.6546 50.6978 40.6546C50.1315 40.6546 49.8483 40.3315 49.8483 39.6851C49.8483 38.1769 51.7816 35.4444 55.6483 31.4876C55.2186 31.0175 54.955 30.5572 54.8574 30.1067C53.3927 31.6345 51.4497 33.6619 49.0281 36.1887L48.8231 35.983ZM55.0624 29.4897C55.6093 28.9217 55.8826 28.5104 55.8826 28.2557C55.8826 28.1773 55.8436 28.1382 55.7655 28.1382C55.5897 28.1382 55.4236 28.2753 55.2675 28.5495C55.1307 28.8237 55.0624 29.1371 55.0624 29.4897ZM60.5081 32.3397C60.5667 32.2809 60.5766 32.2319 60.5374 32.1928C60.4788 32.1537 60.4301 32.1732 60.3909 32.2516C59.6293 32.9763 58.321 34.2886 56.4657 36.1887L56.2607 35.983C57.7839 34.5139 59.6099 32.6923 61.7384 30.518H63.2616C61.797 32.3788 60.3226 34.2298 58.8384 36.0711C57.12 38.3238 56.2607 39.6753 56.2607 40.1258C56.2607 40.3021 56.3388 40.3902 56.495 40.3902C56.8465 40.3902 57.5008 39.9691 58.4576 39.1268C59.4146 38.2845 60.4301 37.2268 61.5041 35.9536L61.7091 36.1593C59.1705 39.215 57.3738 40.7428 56.3192 40.7428C55.9287 40.7428 55.7334 40.5274 55.7334 40.0964C55.7334 39.3128 56.2412 38.167 57.2566 36.6588C57.5301 36.2671 58.6139 34.8274 60.5081 32.3397ZM67.6848 22.4675C67.9778 22.4675 68.1242 22.6635 68.1242 23.0552C68.1242 23.349 68.0071 23.6428 67.7727 23.9366C67.5384 24.2108 67.2943 24.3479 67.0404 24.3479C66.728 24.3479 66.5717 24.1717 66.5717 23.8191C66.5717 23.4861 66.6889 23.1824 66.9232 22.9083C67.1771 22.6144 67.4311 22.4675 67.6848 22.4675ZM70.4885 28.1382L68.643 30.518C67.159 32.3985 65.6845 34.2789 64.2198 36.1593C62.5014 38.3923 61.642 39.7047 61.642 40.0964C61.642 40.3315 61.7495 40.449 61.9643 40.449C62.3939 40.449 63.263 39.8417 64.5713 38.6273C65.6259 37.648 66.4852 36.7567 67.1491 35.9536L67.3541 36.1593C66.6121 37.0211 65.7626 37.9025 64.8057 38.8036C63.341 40.1552 62.3158 40.8309 61.7299 40.8309C61.3394 40.8309 61.1441 40.6155 61.1441 40.1845C61.1441 39.4597 61.642 38.3629 62.638 36.8938C63.3606 35.797 64.8741 33.7794 67.1784 30.8412L67.1198 30.7825C65.6162 32.2516 63.8097 34.0536 61.7006 36.1887L61.4956 35.983C61.6519 35.8067 62.9309 34.5629 65.3329 32.2516C67.5202 30.1361 68.8969 28.6867 69.4632 27.9031C69.1509 27.8443 68.8287 27.815 68.4966 27.815C67.5788 27.815 66.7683 28.2459 66.0653 29.1077C66.0458 29.1469 65.997 29.1665 65.9188 29.1665C65.7822 29.1665 65.7137 29.1175 65.7137 29.0196C65.7137 29 65.7333 28.9706 65.7723 28.9314C66.7879 27.7171 67.8521 27.1098 68.9652 27.1098C69.2192 27.1098 69.561 27.1489 69.9905 27.2273L73.6814 22.5557H74.9117L71.0157 27.4918C71.2892 27.5505 71.5529 27.5799 71.8066 27.5799C72.4121 27.5799 72.9296 27.3057 73.3592 26.7572C73.4177 26.6985 73.4666 26.6691 73.5056 26.6691C73.6034 26.6691 73.6521 26.7769 73.6521 26.9923C72.9882 27.8346 72.2266 28.2557 71.3673 28.2557C71.0157 28.2557 70.7228 28.2166 70.4885 28.1382ZM74.9815 30.4005C74.4738 30.4005 73.7512 30.9196 72.8139 31.9577C72.6771 32.1144 71.8375 33.1427 70.2947 35.0428C69.9822 35.4345 69.5526 35.9927 69.0058 36.7175C70.9391 35.6402 72.5209 34.4454 73.7512 33.133C74.7668 32.0753 75.2744 31.2722 75.2744 30.7237C75.2744 30.5083 75.1769 30.4005 74.9815 30.4005ZM69.7674 33.8382C68.869 34.5433 68.0587 35.317 67.3361 36.1593L67.1311 35.9536C67.8341 35.1506 69.1034 34.0242 70.9391 32.5747C73.0286 30.9294 74.3859 30.1067 75.0108 30.1067C75.4013 30.1067 75.5967 30.3124 75.5967 30.7237C75.5967 31.4092 75.0791 32.2907 74.0442 33.368C72.7748 34.6805 70.988 35.9439 68.6836 37.1583C67.6876 38.5882 67.1896 39.5185 67.1896 39.9495C67.1896 40.2824 67.3361 40.449 67.629 40.449C68.3711 40.449 69.4648 39.9299 70.9098 38.8918C72.2183 37.9319 73.3118 36.9428 74.1906 35.9242L74.3957 36.1299C73.4387 37.2268 72.2573 38.2747 70.8512 39.2737C69.4452 40.253 68.3906 40.7428 67.6876 40.7428C67.0236 40.7428 66.6917 40.4392 66.6917 39.832C66.6917 38.3041 67.7266 36.3258 69.7967 33.8969C69.7967 33.8578 69.787 33.8382 69.7674 33.8382ZM80.5541 36.1593C77.9567 39.215 76.0331 40.7428 74.7834 40.7428C74.139 40.7428 73.8167 40.4293 73.8167 39.8026C73.8167 39.1562 74.2756 38.1866 75.1935 36.8938C75.7598 36.1103 77.3905 34.0438 80.0854 30.6943C80.1244 30.6552 80.1341 30.6159 80.1147 30.5768C80.0951 30.5572 80.0658 30.5671 80.0268 30.6062C78.0153 32.3887 76.1309 34.2495 74.3733 36.1887L74.1683 35.983C76.0038 33.8088 78.2887 31.6052 81.0228 29.3722C82.9755 26.9041 84.9381 24.4263 86.9106 21.9387C90.2694 17.884 92.3102 15.8567 93.0328 15.8567C93.3843 15.8567 93.5601 16.0526 93.5601 16.4443C93.5601 17.4824 92.5641 19.1768 90.5722 21.5273C88.3264 24.1913 85.69 26.5516 82.6632 28.6083C81.2179 30.5278 79.5776 32.6825 77.742 35.0722C75.5547 37.9319 74.4612 39.5969 74.4612 40.067C74.4612 40.3217 74.5784 40.449 74.8127 40.449C75.9648 40.449 77.8103 38.9505 80.349 35.9536L80.5541 36.1593ZM83.2197 27.815C83.2197 27.8541 83.249 27.8737 83.3076 27.8737C86.2955 25.6407 88.7755 23.3099 90.748 20.8809C92.3884 18.8634 93.2086 17.4336 93.2086 16.5912C93.2086 16.3562 93.1108 16.2387 92.9156 16.2387C92.3102 16.2387 89.0783 20.0974 83.2197 27.815Z" fill="#101010" stroke="#101010" stroke-width="0.5"/>
<path fill-rule="evenodd" clip-rule="evenodd" d="M98.8245 13.4928L89.8825 30.1939C92.966 25.3743 99.5183 15.0856 101.06 12.4877C102.602 9.88976 103.193 8.15781 103.296 7.61655C103.296 5.76088 102.062 7.51347 101.445 8.62171L98.8245 13.4928ZM101.291 9.74227C101.625 9.32989 102.062 9.51028 101.908 10.0515C101.754 10.5928 100.495 12.5258 99.7496 13.3763C99.0044 14.2268 100.957 10.1546 101.291 9.74227Z" fill="black"/>
<path d="M89.8828 30.1939L89.8149 30.1573L89.9477 30.2357L89.8828 30.1939ZM98.8248 13.4928L98.757 13.4561V13.4563L98.8248 13.4928ZM101.06 12.4877L101.127 12.5273L101.06 12.4877ZM103.296 7.61656L103.371 7.63104L103.373 7.62386V7.61656H103.296ZM101.446 8.62172L101.378 8.58403L101.378 8.585L101.446 8.62172ZM101.908 10.0515L101.834 10.0303L101.908 10.0515ZM101.292 9.74228L101.232 9.69352L101.292 9.74228ZM99.7498 13.3763L99.6919 13.3253L99.7498 13.3763ZM102.602 8.93101L102.676 8.95226L102.602 8.93101ZM101.985 8.62172L101.919 8.58194L101.985 8.62172ZM89.9506 30.2304L98.8926 13.5294L98.757 13.4563L89.8149 30.1573L89.9506 30.2304ZM100.994 12.4482C99.4532 15.0447 92.9018 25.3319 89.8179 30.1522L89.9477 30.2357C93.0307 25.4168 99.5839 15.1266 101.127 12.5273L100.994 12.4482ZM103.22 7.6021C103.12 8.13061 102.534 9.85363 100.994 12.4482L101.127 12.5273C102.67 9.92591 103.266 8.185 103.371 7.63104L103.22 7.6021ZM101.513 8.6594C101.821 8.10547 102.278 7.40064 102.653 7.06538C102.747 6.98194 102.83 6.92594 102.9 6.89922C102.969 6.87303 103.017 6.87779 103.052 6.90029C103.091 6.92501 103.135 6.98251 103.167 7.102C103.2 7.22011 103.219 7.38797 103.219 7.61656H103.373C103.373 7.38125 103.353 7.19795 103.316 7.06104C103.279 6.92552 103.221 6.82414 103.135 6.76954C103.045 6.7127 102.943 6.71767 102.846 6.7546C102.75 6.79099 102.65 6.86106 102.551 6.94996C102.155 7.30414 101.687 8.02973 101.378 8.58403L101.513 8.6594ZM98.8926 13.5296L101.514 8.65844L101.378 8.585L98.757 13.4561L98.8926 13.5296ZM101.982 10.0728C102.064 9.78718 101.999 9.55427 101.815 9.46914C101.637 9.38625 101.409 9.47483 101.232 9.69352L101.351 9.79103C101.508 9.59733 101.666 9.56992 101.751 9.60944C101.831 9.64674 101.907 9.77464 101.834 10.0303L101.982 10.0728ZM99.8078 13.4273C100.184 12.9981 100.687 12.2987 101.115 11.6402C101.329 11.3106 101.526 10.9901 101.678 10.7176C101.829 10.4474 101.941 10.2179 101.982 10.0728L101.834 10.0303C101.798 10.1559 101.695 10.371 101.543 10.6419C101.393 10.9107 101.199 11.2281 100.986 11.5557C100.56 12.2116 100.061 12.904 99.6919 13.3253L99.8078 13.4273ZM101.232 9.69352C101.185 9.75092 101.115 9.86532 101.032 10.0137C100.947 10.164 100.846 10.3546 100.736 10.5683C100.517 10.9959 100.265 11.5181 100.046 12.0009C99.8274 12.4825 99.6408 12.9286 99.5557 13.2023C99.5345 13.2708 99.5187 13.331 99.5107 13.3794C99.5067 13.4036 99.5042 13.4271 99.5045 13.4484C99.5048 13.4678 99.5075 13.4947 99.5212 13.5192C99.5287 13.5325 99.5402 13.5463 99.557 13.5563C99.5739 13.5665 99.5921 13.5703 99.6086 13.5701C99.6387 13.5698 99.6644 13.5566 99.6818 13.5456C99.7184 13.5225 99.7605 13.4813 99.8078 13.4273L99.6919 13.3253C99.6461 13.3776 99.6162 13.4043 99.5995 13.4148C99.5904 13.4206 99.5943 13.4156 99.6071 13.4155C99.6149 13.4154 99.6254 13.4172 99.636 13.4235C99.6464 13.4297 99.6524 13.4377 99.6556 13.4433C99.6607 13.4524 99.6589 13.4564 99.6587 13.446C99.6586 13.4374 99.6596 13.424 99.6629 13.4048C99.6692 13.3665 99.6824 13.3141 99.703 13.2483C99.7848 12.9848 99.9677 12.5466 100.186 12.0649C100.404 11.5844 100.656 11.0644 100.874 10.639C100.982 10.4263 101.083 10.2377 101.166 10.0897C101.25 9.93977 101.314 9.83672 101.351 9.79103L101.232 9.69352ZM89.9494 30.2329L99.6962 13.5255L99.5631 13.4474L89.8162 30.1548L89.9494 30.2329ZM101.689 10.6962C101.919 10.3684 102.135 10.0406 102.308 9.74167C102.481 9.44393 102.614 9.17044 102.676 8.95226L102.528 8.90976C102.471 9.109 102.346 9.3691 102.175 9.66395C102.005 9.95766 101.792 10.2815 101.563 10.6072L101.689 10.6962ZM102.676 8.95226C102.754 8.67977 102.812 8.42484 102.842 8.21962C102.857 8.11713 102.865 8.02507 102.863 7.94839C102.862 7.87473 102.853 7.80375 102.823 7.75218C102.807 7.72464 102.784 7.69878 102.75 7.6844C102.715 7.66994 102.68 7.67104 102.647 7.68015C102.587 7.69708 102.525 7.74542 102.46 7.81128C102.328 7.94627 102.151 8.19462 101.919 8.58194L102.051 8.6615C102.282 8.27562 102.452 8.04072 102.57 7.91959C102.631 7.85738 102.67 7.83445 102.689 7.82904C102.697 7.82696 102.695 7.82913 102.69 7.82698C102.685 7.82491 102.686 7.82262 102.689 7.8289C102.698 7.84498 102.708 7.88273 102.709 7.95103C102.71 8.0163 102.704 8.09942 102.69 8.19749C102.661 8.39336 102.604 8.64101 102.528 8.90976L102.676 8.95226ZM101.919 8.58194C101.742 8.87794 101.565 9.20849 101.394 9.55056L101.532 9.61991C101.701 9.28022 101.877 8.95325 102.051 8.6615L101.919 8.58194Z" fill="#101010"/>
<path d="M103.835 0C102.909 0.0994183 101.995 0.293202 101.108 0.578351C100.22 0.855144 99.366 1.23176 98.5624 1.70103C97.76 2.16982 97.0357 2.76209 96.4163 3.45619C95.8024 4.15185 95.3245 4.95707 95.0072 5.8299C94.6969 6.70454 94.5282 7.6234 94.5077 8.55155C94.4896 9.47981 94.5749 10.4072 94.7621 11.3165C95.1521 13.1361 95.7685 14.8994 96.5967 16.5649C97.0061 17.392 97.5453 18.1474 98.1939 18.8026C98.8442 19.4491 99.6361 19.9342 100.507 20.2191C101.38 20.4909 102.305 20.5498 103.206 20.3907C105.025 20.0677 106.653 19.0618 107.759 17.5778C108.292 16.8433 108.667 15.9742 108.684 15.0742C108.697 14.6268 108.619 14.1814 108.453 13.766C108.283 13.3493 108.042 12.9656 107.74 12.6325C107.109 11.9751 106.324 11.4853 105.457 11.2067C104.585 10.9166 103.678 10.743 102.761 10.6902C101.839 10.6323 100.915 10.6566 99.9978 10.7629C98.1577 10.9605 96.363 11.4627 94.6865 12.249C93.8561 12.6412 93.0861 13.1511 92.4001 13.7629C92.0616 14.0676 91.7637 14.4148 91.5137 14.7959C91.3912 14.9839 91.2839 15.1814 91.193 15.3866C91.0975 15.5923 91.0201 15.806 90.9617 16.0253C90.8469 16.4627 90.8119 16.9175 90.8584 17.3675C90.9096 17.8206 91.0211 18.2647 91.1899 18.6881C91.5229 19.5433 92.0209 20.3335 92.5235 21.116C93.0508 21.8912 93.5341 22.6956 93.9712 23.5253C94.389 24.365 94.6896 25.3036 94.6418 26.2639C94.6167 26.7418 94.5125 27.2122 94.3335 27.6557C94.1528 28.0927 93.9231 28.5077 93.6489 28.8928C93.1022 29.6596 92.4521 30.3465 91.7172 30.934C90.2587 32.117 88.5905 33 86.8746 33.7175C86.0143 34.0774 85.1406 34.3975 84.2537 34.6778C83.3672 34.967 82.4683 35.2175 81.5572 35.4124C82.4653 35.2052 83.361 34.9485 84.2444 34.6531C85.1278 34.3577 86.0004 34.0345 86.8546 33.6619C88.5505 32.9196 90.2078 32.018 91.6339 30.8304C92.3508 30.2422 92.9855 29.5597 93.521 28.8015C93.7854 28.4244 94.0057 28.0181 94.1778 27.5907C94.3449 27.1647 94.4403 26.7136 94.4599 26.2562C94.4984 25.3392 94.204 24.4392 93.7892 23.6196C93.3494 22.8006 92.864 22.0072 92.3354 21.2428C91.8251 20.4619 91.3132 19.6655 90.9602 18.7809C90.7778 18.3357 90.658 17.8673 90.604 17.3892C90.553 16.9078 90.5891 16.4211 90.7104 15.9526C90.7704 15.7192 90.8502 15.4916 90.9494 15.2722C91.0453 15.052 91.1587 14.84 91.2886 14.6381C91.5496 14.2391 91.8604 13.8753 92.2136 13.5557C92.9217 12.9251 93.7166 12.4001 94.574 11.9969C96.2762 11.1926 98.0996 10.6768 99.97 10.4706C100.904 10.3602 101.846 10.3333 102.785 10.3902C103.729 10.443 104.662 10.6203 105.56 10.9175C106.477 11.2094 107.306 11.7279 107.97 12.4253C108.297 12.7855 108.558 13.2006 108.741 13.6515C108.922 14.1059 109.007 14.593 108.991 15.082C108.96 16.0608 108.554 16.9809 107.995 17.7479C106.84 19.288 105.145 20.3292 103.252 20.6598C102.31 20.829 101.341 20.7642 100.43 20.4708C99.5183 20.1776 98.6924 19.6648 98.0244 18.9773C97.3634 18.2964 96.8163 17.5132 96.404 16.6577C95.5798 14.9722 94.9691 13.1898 94.5863 11.3521C94.4049 10.4281 94.3267 9.4867 94.3535 8.54536C94.3769 7.60209 94.5545 6.66906 94.8792 5.78351C95.2119 4.90033 95.7071 4.08776 96.3393 3.38814C96.9729 2.69493 97.7111 2.1058 98.527 1.64227C99.3396 1.18025 100.202 0.811931 101.097 0.54433C101.989 0.270135 102.906 0.0877503 103.835 0Z" fill="#101010" stroke="#101010" stroke-width="0.2"/>
</g>
<defs>
<clipPath id="clip0">
<rect width="109" height="45" fill="white"/>
</clipPath>
</defs>
</svg>
